<?xml version="1.0" encoding="UTF-8" standalone="no"?>
<!DOCTYPE svg PUBLIC "-//W3C//DTD SVG 1.1//EN"
 "http://www.w3.org/Graphics/SVG/1.1/DTD/svg11.dtd">
<!-- Generated by graphviz version 2.49.3 (20211023.0002)
 -->
<!-- Title: Scheduling&#45;Units Graph for dag.mixer: Pages: 1 -->
<svg width="2535pt" height="742pt"
 viewBox="0.00 0.00 2534.50 742.00" xmlns="http://www.w3.org/2000/svg" xmlns:xlink="http://www.w3.org/1999/xlink">
<g id="graph0" class="graph" transform="scale(1 1) rotate(0) translate(4 738)">
<title>Scheduling&#45;Units Graph for dag.mixer:</title>
<polygon fill="white" stroke="transparent" points="-4,4 -4,-738 2530.5,-738 2530.5,4 -4,4"/>
<text text-anchor="middle" x="1263.25" y="-7.8" font-family="Times,serif" font-size="14.00">Scheduling&#45;Units Graph for dag.mixer:</text>
<!-- Node0x7fc0cd021a00 -->
<g id="node1" class="node">
<title>Node0x7fc0cd021a00</title>
<path fill="none" stroke="black" d="M1522,-438.5C1522,-438.5 1640,-438.5 1640,-438.5 1646,-438.5 1652,-444.5 1652,-450.5 1652,-450.5 1652,-472.5 1652,-472.5 1652,-478.5 1646,-484.5 1640,-484.5 1640,-484.5 1522,-484.5 1522,-484.5 1516,-484.5 1510,-478.5 1510,-472.5 1510,-472.5 1510,-450.5 1510,-450.5 1510,-444.5 1516,-438.5 1522,-438.5"/>
<text text-anchor="middle" x="1581" y="-469.3" font-family="Times,serif" font-size="14.00">SU:0</text>
<polyline fill="none" stroke="black" points="1510,-461.5 1652,-461.5 "/>
<text text-anchor="middle" x="1581" y="-446.3" font-family="Times,serif" font-size="14.00">%0:gr64 = COPY $rdi</text>
</g>
<!-- Node0x7fc0cd021b10 -->
<g id="node2" class="node">
<title>Node0x7fc0cd021b10</title>
<path fill="none" stroke="black" d="M1951.5,-521.5C1951.5,-521.5 2514.5,-521.5 2514.5,-521.5 2520.5,-521.5 2526.5,-527.5 2526.5,-533.5 2526.5,-533.5 2526.5,-555.5 2526.5,-555.5 2526.5,-561.5 2520.5,-567.5 2514.5,-567.5 2514.5,-567.5 1951.5,-567.5 1951.5,-567.5 1945.5,-567.5 1939.5,-561.5 1939.5,-555.5 1939.5,-555.5 1939.5,-533.5 1939.5,-533.5 1939.5,-527.5 1945.5,-521.5 1951.5,-521.5"/>
<text text-anchor="middle" x="2233" y="-552.3" font-family="Times,serif" font-size="14.00">SU:1</text>
<polyline fill="none" stroke="black" points="1939.5,-544.5 2526.5,-544.5 "/>
<text text-anchor="middle" x="2233" y="-529.3" font-family="Times,serif" font-size="14.00">%1:gr64 = MOV64rm $rip, 1, $noreg, target&#45;flags(x86&#45;gotpcrel) @ga, $noreg :: (load (s64) from got)</text>
</g>
<!-- Node0x7fc0cd021c20 -->
<g id="node3" class="node">
<title>Node0x7fc0cd021c20</title>
<path fill="none" stroke="black" d="M1682.5,-438.5C1682.5,-438.5 2389.5,-438.5 2389.5,-438.5 2395.5,-438.5 2401.5,-444.5 2401.5,-450.5 2401.5,-450.5 2401.5,-472.5 2401.5,-472.5 2401.5,-478.5 2395.5,-484.5 2389.5,-484.5 2389.5,-484.5 1682.5,-484.5 1682.5,-484.5 1676.5,-484.5 1670.5,-478.5 1670.5,-472.5 1670.5,-472.5 1670.5,-450.5 1670.5,-450.5 1670.5,-444.5 1676.5,-438.5 1682.5,-438.5"/>
<text text-anchor="middle" x="2036" y="-469.3" font-family="Times,serif" font-size="14.00">SU:2</text>
<polyline fill="none" stroke="black" points="1670.5,-461.5 2401.5,-461.5 "/>
<text text-anchor="middle" x="2036" y="-446.3" font-family="Times,serif" font-size="14.00">undef %12.sub_32bit:gr64_nosp = MOV32rm %1:gr64, 1, $noreg, 0, $noreg :: (dereferenceable load (s32) from @ga, !tbaa !4)</text>
</g>
<!-- Node0x7fc0cd021c20&#45;&gt;Node0x7fc0cd021b10 -->
<g id="edge1" class="edge">
<title>Node0x7fc0cd021c20&#45;&gt;Node0x7fc0cd021b10</title>
<path fill="none" stroke="black" d="M2089.57,-484.53C2114.43,-494.75 2144.15,-506.97 2170.08,-517.63"/>
<polygon fill="black" stroke="black" points="2168.86,-520.91 2179.44,-521.48 2171.52,-514.44 2168.86,-520.91"/>
</g>
<!-- Node0x7fc0cd021d30 -->
<g id="node4" class="node">
<title>Node0x7fc0cd021d30</title>
<path fill="none" stroke="black" d="M12,-604.5C12,-604.5 576,-604.5 576,-604.5 582,-604.5 588,-610.5 588,-616.5 588,-616.5 588,-638.5 588,-638.5 588,-644.5 582,-650.5 576,-650.5 576,-650.5 12,-650.5 12,-650.5 6,-650.5 0,-644.5 0,-638.5 0,-638.5 0,-616.5 0,-616.5 0,-610.5 6,-604.5 12,-604.5"/>
<text text-anchor="middle" x="294" y="-635.3" font-family="Times,serif" font-size="14.00">SU:3</text>
<polyline fill="none" stroke="black" points="0,-627.5 588,-627.5 "/>
<text text-anchor="middle" x="294" y="-612.3" font-family="Times,serif" font-size="14.00">%3:gr64 = MOV64rm $rip, 1, $noreg, target&#45;flags(x86&#45;gotpcrel) @gb, $noreg :: (load (s64) from got)</text>
</g>
<!-- Node0x7fc0cd021e40 -->
<g id="node5" class="node">
<title>Node0x7fc0cd021e40</title>
<path fill="none" stroke="black" d="M18.5,-521.5C18.5,-521.5 591.5,-521.5 591.5,-521.5 597.5,-521.5 603.5,-527.5 603.5,-533.5 603.5,-533.5 603.5,-555.5 603.5,-555.5 603.5,-561.5 597.5,-567.5 591.5,-567.5 591.5,-567.5 18.5,-567.5 18.5,-567.5 12.5,-567.5 6.5,-561.5 6.5,-555.5 6.5,-555.5 6.5,-533.5 6.5,-533.5 6.5,-527.5 12.5,-521.5 18.5,-521.5"/>
<text text-anchor="middle" x="305" y="-552.3" font-family="Times,serif" font-size="14.00">SU:4</text>
<polyline fill="none" stroke="black" points="6.5,-544.5 603.5,-544.5 "/>
<text text-anchor="middle" x="305" y="-529.3" font-family="Times,serif" font-size="14.00">%4:gr32 = MOV32rm %3:gr64, 1, $noreg, 0, $noreg :: (dereferenceable load (s32) from @gb, !tbaa !4)</text>
</g>
<!-- Node0x7fc0cd021e40&#45;&gt;Node0x7fc0cd021d30 -->
<g id="edge2" class="edge">
<title>Node0x7fc0cd021e40&#45;&gt;Node0x7fc0cd021d30</title>
<path fill="none" stroke="black" d="M301.99,-567.63C300.88,-575.85 299.59,-585.34 298.38,-594.27"/>
<polygon fill="black" stroke="black" points="294.88,-594.01 297,-604.39 301.82,-594.96 294.88,-594.01"/>
</g>
<!-- Node0x7fc0cd021f50 -->
<g id="node6" class="node">
<title>Node0x7fc0cd021f50</title>
<path fill="none" stroke="black" d="M717.5,-687.5C717.5,-687.5 1280.5,-687.5 1280.5,-687.5 1286.5,-687.5 1292.5,-693.5 1292.5,-699.5 1292.5,-699.5 1292.5,-721.5 1292.5,-721.5 1292.5,-727.5 1286.5,-733.5 1280.5,-733.5 1280.5,-733.5 717.5,-733.5 717.5,-733.5 711.5,-733.5 705.5,-727.5 705.5,-721.5 705.5,-721.5 705.5,-699.5 705.5,-699.5 705.5,-693.5 711.5,-687.5 717.5,-687.5"/>
<text text-anchor="middle" x="999" y="-718.3" font-family="Times,serif" font-size="14.00">SU:5</text>
<polyline fill="none" stroke="black" points="705.5,-710.5 1292.5,-710.5 "/>
<text text-anchor="middle" x="999" y="-695.3" font-family="Times,serif" font-size="14.00">%5:gr64 = MOV64rm $rip, 1, $noreg, target&#45;flags(x86&#45;gotpcrel) @gc, $noreg :: (load (s64) from got)</text>
</g>
<!-- Node0x7fc0cd022060 -->
<g id="node7" class="node">
<title>Node0x7fc0cd022060</title>
<path fill="none" stroke="black" d="M1426,-687.5C1426,-687.5 1990,-687.5 1990,-687.5 1996,-687.5 2002,-693.5 2002,-699.5 2002,-699.5 2002,-721.5 2002,-721.5 2002,-727.5 1996,-733.5 1990,-733.5 1990,-733.5 1426,-733.5 1426,-733.5 1420,-733.5 1414,-727.5 1414,-721.5 1414,-721.5 1414,-699.5 1414,-699.5 1414,-693.5 1420,-687.5 1426,-687.5"/>
<text text-anchor="middle" x="1708" y="-718.3" font-family="Times,serif" font-size="14.00">SU:6</text>
<polyline fill="none" stroke="black" points="1414,-710.5 2002,-710.5 "/>
<text text-anchor="middle" x="1708" y="-695.3" font-family="Times,serif" font-size="14.00">%6:gr64 = MOV64rm $rip, 1, $noreg, target&#45;flags(x86&#45;gotpcrel) @gd, $noreg :: (load (s64) from got)</text>
</g>
<!-- Node0x7fc0cd022170 -->
<g id="node8" class="node">
<title>Node0x7fc0cd022170</title>
<path fill="none" stroke="black" d="M1421.5,-604.5C1421.5,-604.5 1994.5,-604.5 1994.5,-604.5 2000.5,-604.5 2006.5,-610.5 2006.5,-616.5 2006.5,-616.5 2006.5,-638.5 2006.5,-638.5 2006.5,-644.5 2000.5,-650.5 1994.5,-650.5 1994.5,-650.5 1421.5,-650.5 1421.5,-650.5 1415.5,-650.5 1409.5,-644.5 1409.5,-638.5 1409.5,-638.5 1409.5,-616.5 1409.5,-616.5 1409.5,-610.5 1415.5,-604.5 1421.5,-604.5"/>
<text text-anchor="middle" x="1708" y="-635.3" font-family="Times,serif" font-size="14.00">SU:7</text>
<polyline fill="none" stroke="black" points="1409.5,-627.5 2006.5,-627.5 "/>
<text text-anchor="middle" x="1708" y="-612.3" font-family="Times,serif" font-size="14.00">%7:gr32 = MOV32rm %6:gr64, 1, $noreg, 0, $noreg :: (dereferenceable load (s32) from @gd, !tbaa !4)</text>
</g>
<!-- Node0x7fc0cd022170&#45;&gt;Node0x7fc0cd022060 -->
<g id="edge3" class="edge">
<title>Node0x7fc0cd022170&#45;&gt;Node0x7fc0cd022060</title>
<path fill="none" stroke="black" d="M1708,-650.63C1708,-658.85 1708,-668.34 1708,-677.27"/>
<polygon fill="black" stroke="black" points="1704.5,-677.39 1708,-687.39 1711.5,-677.39 1704.5,-677.39"/>
</g>
<!-- Node0x7fc0cd022280 -->
<g id="node9" class="node">
<title>Node0x7fc0cd022280</title>
<path fill="none" stroke="black" d="M618.5,-604.5C618.5,-604.5 1379.5,-604.5 1379.5,-604.5 1385.5,-604.5 1391.5,-610.5 1391.5,-616.5 1391.5,-616.5 1391.5,-638.5 1391.5,-638.5 1391.5,-644.5 1385.5,-650.5 1379.5,-650.5 1379.5,-650.5 618.5,-650.5 618.5,-650.5 612.5,-650.5 606.5,-644.5 606.5,-638.5 606.5,-638.5 606.5,-616.5 606.5,-616.5 606.5,-610.5 612.5,-604.5 618.5,-604.5"/>
<text text-anchor="middle" x="999" y="-635.3" font-family="Times,serif" font-size="14.00">SU:8</text>
<polyline fill="none" stroke="black" points="606.5,-627.5 1391.5,-627.5 "/>
<text text-anchor="middle" x="999" y="-612.3" font-family="Times,serif" font-size="14.00">undef %14.sub_32bit:gr64_with_sub_8bit = MOV32rm %5:gr64, 1, $noreg, 0, $noreg :: (dereferenceable load (s32) from @gc, !tbaa !4)</text>
</g>
<!-- Node0x7fc0cd022280&#45;&gt;Node0x7fc0cd021f50 -->
<g id="edge4" class="edge">
<title>Node0x7fc0cd022280&#45;&gt;Node0x7fc0cd021f50</title>
<path fill="none" stroke="black" d="M999,-650.63C999,-658.85 999,-668.34 999,-677.27"/>
<polygon fill="black" stroke="black" points="995.5,-677.39 999,-687.39 1002.5,-677.39 995.5,-677.39"/>
</g>
<!-- Node0x7fc0cd022390 -->
<g id="node10" class="node">
<title>Node0x7fc0cd022390</title>
<path fill="none" stroke="black" d="M633.5,-521.5C633.5,-521.5 1364.5,-521.5 1364.5,-521.5 1370.5,-521.5 1376.5,-527.5 1376.5,-533.5 1376.5,-533.5 1376.5,-555.5 1376.5,-555.5 1376.5,-561.5 1370.5,-567.5 1364.5,-567.5 1364.5,-567.5 633.5,-567.5 633.5,-567.5 627.5,-567.5 621.5,-561.5 621.5,-555.5 621.5,-555.5 621.5,-533.5 621.5,-533.5 621.5,-527.5 627.5,-521.5 633.5,-521.5"/>
<text text-anchor="middle" x="999" y="-552.3" font-family="Times,serif" font-size="14.00">SU:9</text>
<polyline fill="none" stroke="black" points="621.5,-544.5 1376.5,-544.5 "/>
<text text-anchor="middle" x="999" y="-529.3" font-family="Times,serif" font-size="14.00">%14.sub_32bit:gr64_with_sub_8bit = XOR32rr %14.sub_32bit:gr64_with_sub_8bit(tied&#45;def 0), %7:gr32, implicit&#45;def dead $eflags</text>
</g>
<!-- Node0x7fc0cd022390&#45;&gt;Node0x7fc0cd022170 -->
<g id="edge7" class="edge">
<title>Node0x7fc0cd022390&#45;&gt;Node0x7fc0cd022170</title>
<path fill="none" stroke="black" d="M1191.8,-567.53C1288.93,-578.62 1406.67,-592.07 1505.16,-603.33"/>
<polygon fill="black" stroke="black" points="1504.9,-606.82 1515.24,-604.48 1505.7,-599.87 1504.9,-606.82"/>
</g>
<!-- Node0x7fc0cd022390&#45;&gt;Node0x7fc0cd022280 -->
<g id="edge5" class="edge">
<title>Node0x7fc0cd022390&#45;&gt;Node0x7fc0cd022280</title>
<path fill="none" stroke="black" d="M992.91,-567.63C992.28,-575.85 992.1,-585.34 992.38,-594.27"/>
<polygon fill="black" stroke="black" points="988.89,-594.59 992.91,-604.39 995.88,-594.22 988.89,-594.59"/>
</g>
<!-- Node0x7fc0cd022390&#45;&gt;Node0x7fc0cd022280 -->
<g id="edge6" class="edge">
<title>Node0x7fc0cd022390&#45;&gt;Node0x7fc0cd022280</title>
<path fill="none" stroke="blue" stroke-dasharray="5,2" d="M1005.09,-567.63C1005.72,-575.85 1005.9,-585.34 1005.62,-594.27"/>
<polygon fill="blue" stroke="blue" points="1002.12,-594.22 1005.09,-604.39 1009.11,-594.59 1002.12,-594.22"/>
</g>
<!-- Node0x7fc0cd0224a0 -->
<g id="node11" class="node">
<title>Node0x7fc0cd0224a0</title>
<path fill="none" stroke="black" d="M633.5,-438.5C633.5,-438.5 1364.5,-438.5 1364.5,-438.5 1370.5,-438.5 1376.5,-444.5 1376.5,-450.5 1376.5,-450.5 1376.5,-472.5 1376.5,-472.5 1376.5,-478.5 1370.5,-484.5 1364.5,-484.5 1364.5,-484.5 633.5,-484.5 633.5,-484.5 627.5,-484.5 621.5,-478.5 621.5,-472.5 621.5,-472.5 621.5,-450.5 621.5,-450.5 621.5,-444.5 627.5,-438.5 633.5,-438.5"/>
<text text-anchor="middle" x="999" y="-469.3" font-family="Times,serif" font-size="14.00">SU:10</text>
<polyline fill="none" stroke="black" points="621.5,-461.5 1376.5,-461.5 "/>
<text text-anchor="middle" x="999" y="-446.3" font-family="Times,serif" font-size="14.00">%14.sub_32bit:gr64_with_sub_8bit = AND32rr %14.sub_32bit:gr64_with_sub_8bit(tied&#45;def 0), %4:gr32, implicit&#45;def dead $eflags</text>
</g>
<!-- Node0x7fc0cd0224a0&#45;&gt;Node0x7fc0cd021e40 -->
<g id="edge10" class="edge">
<title>Node0x7fc0cd0224a0&#45;&gt;Node0x7fc0cd021e40</title>
<path fill="none" stroke="black" d="M810.28,-484.53C715.3,-495.61 600.19,-509.05 503.84,-520.29"/>
<polygon fill="black" stroke="black" points="503.21,-516.84 493.68,-521.48 504.02,-523.79 503.21,-516.84"/>
</g>
<!-- Node0x7fc0cd0224a0&#45;&gt;Node0x7fc0cd022390 -->
<g id="edge8" class="edge">
<title>Node0x7fc0cd0224a0&#45;&gt;Node0x7fc0cd022390</title>
<path fill="none" stroke="black" d="M992.91,-484.63C992.28,-492.85 992.1,-502.34 992.38,-511.27"/>
<polygon fill="black" stroke="black" points="988.89,-511.59 992.91,-521.39 995.88,-511.22 988.89,-511.59"/>
</g>
<!-- Node0x7fc0cd0224a0&#45;&gt;Node0x7fc0cd022390 -->
<g id="edge9" class="edge">
<title>Node0x7fc0cd0224a0&#45;&gt;Node0x7fc0cd022390</title>
<path fill="none" stroke="blue" stroke-dasharray="5,2" d="M1005.09,-484.63C1005.72,-492.85 1005.9,-502.34 1005.62,-511.27"/>
<polygon fill="blue" stroke="blue" points="1002.12,-511.22 1005.09,-521.39 1009.11,-511.59 1002.12,-511.22"/>
</g>
<!-- Node0x7fc0cd0225b0 -->
<g id="node12" class="node">
<title>Node0x7fc0cd0225b0</title>
<path fill="none" stroke="black" d="M633.5,-355.5C633.5,-355.5 1364.5,-355.5 1364.5,-355.5 1370.5,-355.5 1376.5,-361.5 1376.5,-367.5 1376.5,-367.5 1376.5,-389.5 1376.5,-389.5 1376.5,-395.5 1370.5,-401.5 1364.5,-401.5 1364.5,-401.5 633.5,-401.5 633.5,-401.5 627.5,-401.5 621.5,-395.5 621.5,-389.5 621.5,-389.5 621.5,-367.5 621.5,-367.5 621.5,-361.5 627.5,-355.5 633.5,-355.5"/>
<text text-anchor="middle" x="999" y="-386.3" font-family="Times,serif" font-size="14.00">SU:11</text>
<polyline fill="none" stroke="black" points="621.5,-378.5 1376.5,-378.5 "/>
<text text-anchor="middle" x="999" y="-363.3" font-family="Times,serif" font-size="14.00">%14.sub_32bit:gr64_with_sub_8bit = XOR32rr %14.sub_32bit:gr64_with_sub_8bit(tied&#45;def 0), %7:gr32, implicit&#45;def dead $eflags</text>
</g>
<!-- Node0x7fc0cd0225b0&#45;&gt;Node0x7fc0cd022170 -->
<g id="edge13" class="edge">
<title>Node0x7fc0cd0225b0&#45;&gt;Node0x7fc0cd022170</title>
<path fill="none" stroke="black" d="M1240.41,-401.54C1289.43,-410.01 1340.03,-421.75 1386,-438 1497.18,-477.31 1613.07,-556.03 1670.75,-598.24"/>
<polygon fill="black" stroke="black" points="1668.7,-601.08 1678.83,-604.19 1672.85,-595.44 1668.7,-601.08"/>
</g>
<!-- Node0x7fc0cd0225b0&#45;&gt;Node0x7fc0cd0224a0 -->
<g id="edge11" class="edge">
<title>Node0x7fc0cd0225b0&#45;&gt;Node0x7fc0cd0224a0</title>
<path fill="none" stroke="black" d="M992.91,-401.63C992.28,-409.85 992.1,-419.34 992.38,-428.27"/>
<polygon fill="black" stroke="black" points="988.89,-428.59 992.91,-438.39 995.88,-428.22 988.89,-428.59"/>
</g>
<!-- Node0x7fc0cd0225b0&#45;&gt;Node0x7fc0cd0224a0 -->
<g id="edge12" class="edge">
<title>Node0x7fc0cd0225b0&#45;&gt;Node0x7fc0cd0224a0</title>
<path fill="none" stroke="blue" stroke-dasharray="5,2" d="M1005.09,-401.63C1005.72,-409.85 1005.9,-419.34 1005.62,-428.27"/>
<polygon fill="blue" stroke="blue" points="1002.12,-428.22 1005.09,-438.39 1009.11,-428.59 1002.12,-428.22"/>
</g>
<!-- Node0x7fc0cd0226c0 -->
<g id="node13" class="node">
<title>Node0x7fc0cd0226c0</title>
<path fill="none" stroke="black" d="M1406.5,-355.5C1406.5,-355.5 2351.5,-355.5 2351.5,-355.5 2357.5,-355.5 2363.5,-361.5 2363.5,-367.5 2363.5,-367.5 2363.5,-389.5 2363.5,-389.5 2363.5,-395.5 2357.5,-401.5 2351.5,-401.5 2351.5,-401.5 1406.5,-401.5 1406.5,-401.5 1400.5,-401.5 1394.5,-395.5 1394.5,-389.5 1394.5,-389.5 1394.5,-367.5 1394.5,-367.5 1394.5,-361.5 1400.5,-355.5 1406.5,-355.5"/>
<text text-anchor="middle" x="1879" y="-386.3" font-family="Times,serif" font-size="14.00">SU:12</text>
<polyline fill="none" stroke="black" points="1394.5,-378.5 2363.5,-378.5 "/>
<text text-anchor="middle" x="1879" y="-363.3" font-family="Times,serif" font-size="14.00">%12.sub_32bit:gr64_nosp = ADD32rm %12.sub_32bit:gr64_nosp(tied&#45;def 0), %0:gr64, 1, $noreg, 0, $noreg, implicit&#45;def dead $eflags :: (load (s32) from %ir.0, !tbaa !4)</text>
</g>
<!-- Node0x7fc0cd0226c0&#45;&gt;Node0x7fc0cd021a00 -->
<g id="edge16" class="edge">
<title>Node0x7fc0cd0226c0&#45;&gt;Node0x7fc0cd021a00</title>
<path fill="none" stroke="black" d="M1796.78,-401.51C1756.19,-412.41 1706.5,-425.82 1662,-438 1661.9,-438.03 1661.8,-438.06 1661.7,-438.08"/>
<polygon fill="black" stroke="black" points="1660.83,-434.69 1652.11,-440.71 1662.68,-441.44 1660.83,-434.69"/>
</g>
<!-- Node0x7fc0cd0226c0&#45;&gt;Node0x7fc0cd021c20 -->
<g id="edge14" class="edge">
<title>Node0x7fc0cd0226c0&#45;&gt;Node0x7fc0cd021c20</title>
<path fill="none" stroke="black" d="M1915.81,-401.63C1934.34,-411.59 1957.18,-423.42 1977.98,-433.86"/>
<polygon fill="black" stroke="black" points="1976.55,-437.06 1987.06,-438.39 1979.68,-430.8 1976.55,-437.06"/>
</g>
<!-- Node0x7fc0cd0226c0&#45;&gt;Node0x7fc0cd021c20 -->
<g id="edge15" class="edge">
<title>Node0x7fc0cd0226c0&#45;&gt;Node0x7fc0cd021c20</title>
<path fill="none" stroke="blue" stroke-dasharray="5,2" d="M1927.99,-401.63C1947.88,-411.5 1970.68,-423.21 1990.22,-433.58"/>
<polygon fill="blue" stroke="blue" points="1988.77,-436.77 1999.24,-438.39 1992.07,-430.6 1988.77,-436.77"/>
</g>
<!-- Node0x7fc0cd0227d0 -->
<g id="node14" class="node">
<title>Node0x7fc0cd0227d0</title>
<path fill="none" stroke="black" d="M1168,-272.5C1168,-272.5 1674,-272.5 1674,-272.5 1680,-272.5 1686,-278.5 1686,-284.5 1686,-284.5 1686,-306.5 1686,-306.5 1686,-312.5 1680,-318.5 1674,-318.5 1674,-318.5 1168,-318.5 1168,-318.5 1162,-318.5 1156,-312.5 1156,-306.5 1156,-306.5 1156,-284.5 1156,-284.5 1156,-278.5 1162,-272.5 1168,-272.5"/>
<text text-anchor="middle" x="1421" y="-303.3" font-family="Times,serif" font-size="14.00">SU:13</text>
<polyline fill="none" stroke="black" points="1156,-295.5 1686,-295.5 "/>
<text text-anchor="middle" x="1421" y="-280.3" font-family="Times,serif" font-size="14.00">%18:gr32 = LEA64_32r %14:gr64_with_sub_8bit, 1, %12:gr64_nosp, &#45;680876936, $noreg</text>
</g>
<!-- Node0x7fc0cd0227d0&#45;&gt;Node0x7fc0cd0225b0 -->
<g id="edge17" class="edge">
<title>Node0x7fc0cd0227d0&#45;&gt;Node0x7fc0cd0225b0</title>
<path fill="none" stroke="black" d="M1306.24,-318.53C1249.72,-329.38 1181.46,-342.48 1123.66,-353.57"/>
<polygon fill="black" stroke="black" points="1122.89,-350.16 1113.73,-355.48 1124.21,-357.03 1122.89,-350.16"/>
</g>
<!-- Node0x7fc0cd0227d0&#45;&gt;Node0x7fc0cd0226c0 -->
<g id="edge18" class="edge">
<title>Node0x7fc0cd0227d0&#45;&gt;Node0x7fc0cd0226c0</title>
<path fill="none" stroke="black" d="M1545.55,-318.53C1607.15,-329.42 1681.58,-342.59 1744.49,-353.71"/>
<polygon fill="black" stroke="black" points="1744.02,-357.18 1754.48,-355.48 1745.24,-350.29 1744.02,-357.18"/>
</g>
<!-- Node0x7fc0cd0228e0 -->
<g id="node15" class="node">
<title>Node0x7fc0cd0228e0</title>
<path fill="none" stroke="black" d="M1223,-189.5C1223,-189.5 1619,-189.5 1619,-189.5 1625,-189.5 1631,-195.5 1631,-201.5 1631,-201.5 1631,-223.5 1631,-223.5 1631,-229.5 1625,-235.5 1619,-235.5 1619,-235.5 1223,-235.5 1223,-235.5 1217,-235.5 1211,-229.5 1211,-223.5 1211,-223.5 1211,-201.5 1211,-201.5 1211,-195.5 1217,-189.5 1223,-189.5"/>
<text text-anchor="middle" x="1421" y="-220.3" font-family="Times,serif" font-size="14.00">SU:14</text>
<polyline fill="none" stroke="black" points="1211,-212.5 1631,-212.5 "/>
<text text-anchor="middle" x="1421" y="-197.3" font-family="Times,serif" font-size="14.00">%18:gr32 = ROL32ri %18:gr32(tied&#45;def 0), 7, implicit&#45;def dead $eflags</text>
</g>
<!-- Node0x7fc0cd0228e0&#45;&gt;Node0x7fc0cd0227d0 -->
<g id="edge19" class="edge">
<title>Node0x7fc0cd0228e0&#45;&gt;Node0x7fc0cd0227d0</title>
<path fill="none" stroke="black" d="M1414.91,-235.63C1414.28,-243.85 1414.1,-253.34 1414.38,-262.27"/>
<polygon fill="black" stroke="black" points="1410.89,-262.59 1414.91,-272.39 1417.88,-262.22 1410.89,-262.59"/>
</g>
<!-- Node0x7fc0cd0228e0&#45;&gt;Node0x7fc0cd0227d0 -->
<g id="edge20" class="edge">
<title>Node0x7fc0cd0228e0&#45;&gt;Node0x7fc0cd0227d0</title>
<path fill="none" stroke="blue" stroke-dasharray="5,2" d="M1427.09,-235.63C1427.72,-243.85 1427.9,-253.34 1427.62,-262.27"/>
<polygon fill="blue" stroke="blue" points="1424.12,-262.22 1427.09,-272.39 1431.11,-262.59 1424.12,-262.22"/>
</g>
<!-- Node0x7fc0cd0229f0 -->
<g id="node16" class="node">
<title>Node0x7fc0cd0229f0</title>
<path fill="none" stroke="black" d="M1201,-106.5C1201,-106.5 1641,-106.5 1641,-106.5 1647,-106.5 1653,-112.5 1653,-118.5 1653,-118.5 1653,-140.5 1653,-140.5 1653,-146.5 1647,-152.5 1641,-152.5 1641,-152.5 1201,-152.5 1201,-152.5 1195,-152.5 1189,-146.5 1189,-140.5 1189,-140.5 1189,-118.5 1189,-118.5 1189,-112.5 1195,-106.5 1201,-106.5"/>
<text text-anchor="middle" x="1421" y="-137.3" font-family="Times,serif" font-size="14.00">SU:15</text>
<polyline fill="none" stroke="black" points="1189,-129.5 1653,-129.5 "/>
<text text-anchor="middle" x="1421" y="-114.3" font-family="Times,serif" font-size="14.00">%18:gr32 = ADD32rr %18:gr32(tied&#45;def 0), %4:gr32, implicit&#45;def dead $eflags</text>
</g>
<!-- Node0x7fc0cd0229f0&#45;&gt;Node0x7fc0cd021e40 -->
<g id="edge23" class="edge">
<title>Node0x7fc0cd0229f0&#45;&gt;Node0x7fc0cd021e40</title>
<path fill="none" stroke="black" d="M1188.8,-147.03C901.27,-170.69 449,-219.79 449,-294.5 449,-294.5 449,-294.5 449,-379.5 449,-439.23 394.4,-487.59 352.44,-515.93"/>
<polygon fill="black" stroke="black" points="350.4,-513.08 343.97,-521.5 354.25,-518.93 350.4,-513.08"/>
</g>
<!-- Node0x7fc0cd0229f0&#45;&gt;Node0x7fc0cd0228e0 -->
<g id="edge21" class="edge">
<title>Node0x7fc0cd0229f0&#45;&gt;Node0x7fc0cd0228e0</title>
<path fill="none" stroke="black" d="M1414.91,-152.63C1414.28,-160.85 1414.1,-170.34 1414.38,-179.27"/>
<polygon fill="black" stroke="black" points="1410.89,-179.59 1414.91,-189.39 1417.88,-179.22 1410.89,-179.59"/>
</g>
<!-- Node0x7fc0cd0229f0&#45;&gt;Node0x7fc0cd0228e0 -->
<g id="edge22" class="edge">
<title>Node0x7fc0cd0229f0&#45;&gt;Node0x7fc0cd0228e0</title>
<path fill="none" stroke="blue" stroke-dasharray="5,2" d="M1427.09,-152.63C1427.72,-160.85 1427.9,-170.34 1427.62,-179.27"/>
<polygon fill="blue" stroke="blue" points="1424.12,-179.22 1427.09,-189.39 1431.11,-179.59 1424.12,-179.22"/>
</g>
<!-- Node0x7fc0cd022b00 -->
<g id="node17" class="node">
<title>Node0x7fc0cd022b00</title>
<path fill="none" stroke="black" d="M2024.5,-23.5C2024.5,-23.5 2501.5,-23.5 2501.5,-23.5 2507.5,-23.5 2513.5,-29.5 2513.5,-35.5 2513.5,-35.5 2513.5,-57.5 2513.5,-57.5 2513.5,-63.5 2507.5,-69.5 2501.5,-69.5 2501.5,-69.5 2024.5,-69.5 2024.5,-69.5 2018.5,-69.5 2012.5,-63.5 2012.5,-57.5 2012.5,-57.5 2012.5,-35.5 2012.5,-35.5 2012.5,-29.5 2018.5,-23.5 2024.5,-23.5"/>
<text text-anchor="middle" x="2263" y="-54.3" font-family="Times,serif" font-size="14.00">SU:16</text>
<polyline fill="none" stroke="black" points="2012.5,-46.5 2513.5,-46.5 "/>
<text text-anchor="middle" x="2263" y="-31.3" font-family="Times,serif" font-size="14.00">MOV32mr %1:gr64, 1, $noreg, 0, $noreg, %18:gr32 :: (store (s32) into @ga, !tbaa !4)</text>
</g>
<!-- Node0x7fc0cd022b00&#45;&gt;Node0x7fc0cd021b10 -->
<g id="edge27" class="edge">
<title>Node0x7fc0cd022b00&#45;&gt;Node0x7fc0cd021b10</title>
<path fill="none" stroke="black" d="M2318.37,-69.5C2336.97,-78.78 2356.81,-90.97 2372,-106 2410.03,-143.64 2430,-157.99 2430,-211.5 2430,-211.5 2430,-211.5 2430,-379.5 2430,-427.14 2442.26,-449.05 2411,-485 2399.11,-498.67 2383.98,-509.16 2367.56,-517.21"/>
<polygon fill="black" stroke="black" points="2365.97,-514.09 2358.33,-521.43 2368.88,-520.46 2365.97,-514.09"/>
</g>
<!-- Node0x7fc0cd022b00&#45;&gt;Node0x7fc0cd021c20 -->
<g id="edge26" class="edge">
<title>Node0x7fc0cd022b00&#45;&gt;Node0x7fc0cd021c20</title>
<path fill="none" stroke="blue" stroke-dasharray="5,2" d="M2296.89,-69.74C2335.11,-97.8 2392,-149.92 2392,-211.5 2392,-211.5 2392,-211.5 2392,-296.5 2392,-344.14 2406.79,-368.42 2373,-402 2357.92,-416.98 2324.92,-428.16 2285.19,-436.49"/>
<polygon fill="blue" stroke="blue" points="2284.35,-433.09 2275.24,-438.49 2285.73,-439.95 2284.35,-433.09"/>
</g>
<!-- Node0x7fc0cd022b00&#45;&gt;Node0x7fc0cd0226c0 -->
<g id="edge25" class="edge">
<title>Node0x7fc0cd022b00&#45;&gt;Node0x7fc0cd0226c0</title>
<path fill="none" stroke="blue" stroke-dasharray="5,2" d="M2237.21,-69.66C2169.71,-127.67 1987.9,-283.91 1912.49,-348.72"/>
<polygon fill="blue" stroke="blue" points="1909.98,-346.26 1904.68,-355.43 1914.54,-351.57 1909.98,-346.26"/>
</g>
<!-- Node0x7fc0cd022b00&#45;&gt;Node0x7fc0cd0229f0 -->
<g id="edge24" class="edge">
<title>Node0x7fc0cd022b00&#45;&gt;Node0x7fc0cd0229f0</title>
<path fill="none" stroke="black" d="M2034.03,-69.53C1918.1,-80.68 1777.45,-94.21 1660.12,-105.5"/>
<polygon fill="black" stroke="black" points="1659.54,-102.04 1649.92,-106.48 1660.21,-109 1659.54,-102.04"/>
</g>
</g>
</svg>
