<?xml version="1.0" encoding="UTF-8" standalone="no"?>
<!DOCTYPE svg PUBLIC "-//W3C//DTD SVG 1.1//EN"
 "http://www.w3.org/Graphics/SVG/1.1/DTD/svg11.dtd">
<!-- Generated by graphviz version 2.49.3 (20211023.0002)
 -->
<!-- Title: Scheduling&#45;Units Graph for dag.mixer: Pages: 1 -->
<svg width="421pt" height="742pt"
 viewBox="0.00 0.00 421.00 742.00" xmlns="http://www.w3.org/2000/svg" xmlns:xlink="http://www.w3.org/1999/xlink">
<g id="graph0" class="graph" transform="scale(1 1) rotate(0) translate(4 738)">
<title>Scheduling&#45;Units Graph for dag.mixer:</title>
<polygon fill="white" stroke="transparent" points="-4,4 -4,-738 417,-738 417,4 -4,4"/>
<text text-anchor="middle" x="206.5" y="-7.8" font-family="Times,serif" font-size="14.00">Scheduling&#45;Units Graph for dag.mixer:</text>
<!-- Node0x7fbfc2028000 -->
<g id="node1" class="node">
<title>Node0x7fbfc2028000</title>
<path fill="none" stroke="black" d="M239.5,-272.5C239.5,-272.5 269.5,-272.5 269.5,-272.5 275.5,-272.5 281.5,-278.5 281.5,-284.5 281.5,-284.5 281.5,-306.5 281.5,-306.5 281.5,-312.5 275.5,-318.5 269.5,-318.5 269.5,-318.5 239.5,-318.5 239.5,-318.5 233.5,-318.5 227.5,-312.5 227.5,-306.5 227.5,-306.5 227.5,-284.5 227.5,-284.5 227.5,-278.5 233.5,-272.5 239.5,-272.5"/>
<text text-anchor="middle" x="254.5" y="-303.3" font-family="Times,serif" font-size="14.00">SU:0</text>
<polyline fill="none" stroke="black" points="227.5,-295.5 281.5,-295.5 "/>
<text text-anchor="middle" x="254.5" y="-280.3" font-family="Times,serif" font-size="14.00">COPY</text>
</g>
<!-- Node0x7fbfc2028110 -->
<g id="node2" class="node">
<title>Node0x7fbfc2028110</title>
<path fill="none" stroke="black" d="M346,-189.5C346,-189.5 401,-189.5 401,-189.5 407,-189.5 413,-195.5 413,-201.5 413,-201.5 413,-223.5 413,-223.5 413,-229.5 407,-235.5 401,-235.5 401,-235.5 346,-235.5 346,-235.5 340,-235.5 334,-229.5 334,-223.5 334,-223.5 334,-201.5 334,-201.5 334,-195.5 340,-189.5 346,-189.5"/>
<text text-anchor="middle" x="373.5" y="-220.3" font-family="Times,serif" font-size="14.00">SU:1</text>
<polyline fill="none" stroke="black" points="334,-212.5 413,-212.5 "/>
<text text-anchor="middle" x="373.5" y="-197.3" font-family="Times,serif" font-size="14.00">MOV64rm</text>
</g>
<!-- Node0x7fbfc2028220 -->
<g id="node3" class="node">
<title>Node0x7fbfc2028220</title>
<path fill="none" stroke="black" d="M312,-272.5C312,-272.5 367,-272.5 367,-272.5 373,-272.5 379,-278.5 379,-284.5 379,-284.5 379,-306.5 379,-306.5 379,-312.5 373,-318.5 367,-318.5 367,-318.5 312,-318.5 312,-318.5 306,-318.5 300,-312.5 300,-306.5 300,-306.5 300,-284.5 300,-284.5 300,-278.5 306,-272.5 312,-272.5"/>
<text text-anchor="middle" x="339.5" y="-303.3" font-family="Times,serif" font-size="14.00">SU:2</text>
<polyline fill="none" stroke="black" points="300,-295.5 379,-295.5 "/>
<text text-anchor="middle" x="339.5" y="-280.3" font-family="Times,serif" font-size="14.00">MOV32rm</text>
</g>
<!-- Node0x7fbfc2028220&#45;&gt;Node0x7fbfc2028110 -->
<g id="edge1" class="edge">
<title>Node0x7fbfc2028220&#45;&gt;Node0x7fbfc2028110</title>
<path fill="none" stroke="black" d="M348.79,-272.37C352.35,-263.88 356.48,-254.04 360.34,-244.85"/>
<polygon fill="black" stroke="black" points="363.58,-246.18 364.22,-235.61 357.12,-243.47 363.58,-246.18"/>
</g>
<!-- Node0x7fbfc2028330 -->
<g id="node4" class="node">
<title>Node0x7fbfc2028330</title>
<path fill="none" stroke="black" d="M12,-106.5C12,-106.5 67,-106.5 67,-106.5 73,-106.5 79,-112.5 79,-118.5 79,-118.5 79,-140.5 79,-140.5 79,-146.5 73,-152.5 67,-152.5 67,-152.5 12,-152.5 12,-152.5 6,-152.5 0,-146.5 0,-140.5 0,-140.5 0,-118.5 0,-118.5 0,-112.5 6,-106.5 12,-106.5"/>
<text text-anchor="middle" x="39.5" y="-137.3" font-family="Times,serif" font-size="14.00">SU:3</text>
<polyline fill="none" stroke="black" points="0,-129.5 79,-129.5 "/>
<text text-anchor="middle" x="39.5" y="-114.3" font-family="Times,serif" font-size="14.00">MOV64rm</text>
</g>
<!-- Node0x7fbfc2028440 -->
<g id="node5" class="node">
<title>Node0x7fbfc2028440</title>
<path fill="none" stroke="black" d="M17,-189.5C17,-189.5 72,-189.5 72,-189.5 78,-189.5 84,-195.5 84,-201.5 84,-201.5 84,-223.5 84,-223.5 84,-229.5 78,-235.5 72,-235.5 72,-235.5 17,-235.5 17,-235.5 11,-235.5 5,-229.5 5,-223.5 5,-223.5 5,-201.5 5,-201.5 5,-195.5 11,-189.5 17,-189.5"/>
<text text-anchor="middle" x="44.5" y="-220.3" font-family="Times,serif" font-size="14.00">SU:4</text>
<polyline fill="none" stroke="black" points="5,-212.5 84,-212.5 "/>
<text text-anchor="middle" x="44.5" y="-197.3" font-family="Times,serif" font-size="14.00">MOV32rm</text>
</g>
<!-- Node0x7fbfc2028440&#45;&gt;Node0x7fbfc2028330 -->
<g id="edge2" class="edge">
<title>Node0x7fbfc2028440&#45;&gt;Node0x7fbfc2028330</title>
<path fill="none" stroke="black" d="M43.13,-189.37C42.63,-181.15 42.04,-171.66 41.49,-162.73"/>
<polygon fill="black" stroke="black" points="44.97,-162.37 40.86,-152.61 37.99,-162.8 44.97,-162.37"/>
</g>
<!-- Node0x7fbfc2028550 -->
<g id="node6" class="node">
<title>Node0x7fbfc2028550</title>
<path fill="none" stroke="black" d="M109,-23.5C109,-23.5 164,-23.5 164,-23.5 170,-23.5 176,-29.5 176,-35.5 176,-35.5 176,-57.5 176,-57.5 176,-63.5 170,-69.5 164,-69.5 164,-69.5 109,-69.5 109,-69.5 103,-69.5 97,-63.5 97,-57.5 97,-57.5 97,-35.5 97,-35.5 97,-29.5 103,-23.5 109,-23.5"/>
<text text-anchor="middle" x="136.5" y="-54.3" font-family="Times,serif" font-size="14.00">SU:5</text>
<polyline fill="none" stroke="black" points="97,-46.5 176,-46.5 "/>
<text text-anchor="middle" x="136.5" y="-31.3" font-family="Times,serif" font-size="14.00">MOV64rm</text>
</g>
<!-- Node0x7fbfc2028660 -->
<g id="node7" class="node">
<title>Node0x7fbfc2028660</title>
<path fill="none" stroke="black" d="M206,-23.5C206,-23.5 261,-23.5 261,-23.5 267,-23.5 273,-29.5 273,-35.5 273,-35.5 273,-57.5 273,-57.5 273,-63.5 267,-69.5 261,-69.5 261,-69.5 206,-69.5 206,-69.5 200,-69.5 194,-63.5 194,-57.5 194,-57.5 194,-35.5 194,-35.5 194,-29.5 200,-23.5 206,-23.5"/>
<text text-anchor="middle" x="233.5" y="-54.3" font-family="Times,serif" font-size="14.00">SU:6</text>
<polyline fill="none" stroke="black" points="194,-46.5 273,-46.5 "/>
<text text-anchor="middle" x="233.5" y="-31.3" font-family="Times,serif" font-size="14.00">MOV64rm</text>
</g>
<!-- Node0x7fbfc2028770 -->
<g id="node8" class="node">
<title>Node0x7fbfc2028770</title>
<path fill="none" stroke="black" d="M206,-106.5C206,-106.5 261,-106.5 261,-106.5 267,-106.5 273,-112.5 273,-118.5 273,-118.5 273,-140.5 273,-140.5 273,-146.5 267,-152.5 261,-152.5 261,-152.5 206,-152.5 206,-152.5 200,-152.5 194,-146.5 194,-140.5 194,-140.5 194,-118.5 194,-118.5 194,-112.5 200,-106.5 206,-106.5"/>
<text text-anchor="middle" x="233.5" y="-137.3" font-family="Times,serif" font-size="14.00">SU:7</text>
<polyline fill="none" stroke="black" points="194,-129.5 273,-129.5 "/>
<text text-anchor="middle" x="233.5" y="-114.3" font-family="Times,serif" font-size="14.00">MOV32rm</text>
</g>
<!-- Node0x7fbfc2028770&#45;&gt;Node0x7fbfc2028660 -->
<g id="edge3" class="edge">
<title>Node0x7fbfc2028770&#45;&gt;Node0x7fbfc2028660</title>
<path fill="none" stroke="black" d="M233.5,-106.37C233.5,-98.15 233.5,-88.66 233.5,-79.73"/>
<polygon fill="black" stroke="black" points="237,-79.61 233.5,-69.61 230,-79.61 237,-79.61"/>
</g>
<!-- Node0x7fbfc2028880 -->
<g id="node9" class="node">
<title>Node0x7fbfc2028880</title>
<path fill="none" stroke="black" d="M109,-106.5C109,-106.5 164,-106.5 164,-106.5 170,-106.5 176,-112.5 176,-118.5 176,-118.5 176,-140.5 176,-140.5 176,-146.5 170,-152.5 164,-152.5 164,-152.5 109,-152.5 109,-152.5 103,-152.5 97,-146.5 97,-140.5 97,-140.5 97,-118.5 97,-118.5 97,-112.5 103,-106.5 109,-106.5"/>
<text text-anchor="middle" x="136.5" y="-137.3" font-family="Times,serif" font-size="14.00">SU:8</text>
<polyline fill="none" stroke="black" points="97,-129.5 176,-129.5 "/>
<text text-anchor="middle" x="136.5" y="-114.3" font-family="Times,serif" font-size="14.00">MOV32rm</text>
</g>
<!-- Node0x7fbfc2028880&#45;&gt;Node0x7fbfc2028550 -->
<g id="edge4" class="edge">
<title>Node0x7fbfc2028880&#45;&gt;Node0x7fbfc2028550</title>
<path fill="none" stroke="black" d="M136.5,-106.37C136.5,-98.15 136.5,-88.66 136.5,-79.73"/>
<polygon fill="black" stroke="black" points="140,-79.61 136.5,-69.61 133,-79.61 140,-79.61"/>
</g>
<!-- Node0x7fbfc2028990 -->
<g id="node10" class="node">
<title>Node0x7fbfc2028990</title>
<path fill="none" stroke="black" d="M114,-189.5C114,-189.5 159,-189.5 159,-189.5 165,-189.5 171,-195.5 171,-201.5 171,-201.5 171,-223.5 171,-223.5 171,-229.5 165,-235.5 159,-235.5 159,-235.5 114,-235.5 114,-235.5 108,-235.5 102,-229.5 102,-223.5 102,-223.5 102,-201.5 102,-201.5 102,-195.5 108,-189.5 114,-189.5"/>
<text text-anchor="middle" x="136.5" y="-220.3" font-family="Times,serif" font-size="14.00">SU:9</text>
<polyline fill="none" stroke="black" points="102,-212.5 171,-212.5 "/>
<text text-anchor="middle" x="136.5" y="-197.3" font-family="Times,serif" font-size="14.00">XOR32rr</text>
</g>
<!-- Node0x7fbfc2028990&#45;&gt;Node0x7fbfc2028770 -->
<g id="edge7" class="edge">
<title>Node0x7fbfc2028990&#45;&gt;Node0x7fbfc2028770</title>
<path fill="none" stroke="black" d="M163.01,-189.37C174.13,-180.08 187.2,-169.16 199.06,-159.26"/>
<polygon fill="black" stroke="black" points="201.59,-161.7 207.03,-152.61 197.11,-156.33 201.59,-161.7"/>
</g>
<!-- Node0x7fbfc2028990&#45;&gt;Node0x7fbfc2028880 -->
<g id="edge5" class="edge">
<title>Node0x7fbfc2028990&#45;&gt;Node0x7fbfc2028880</title>
<path fill="none" stroke="black" d="M130.41,-189.37C129.78,-181.15 129.6,-171.66 129.88,-162.73"/>
<polygon fill="black" stroke="black" points="133.38,-162.78 130.41,-152.61 126.39,-162.41 133.38,-162.78"/>
</g>
<!-- Node0x7fbfc2028990&#45;&gt;Node0x7fbfc2028880 -->
<g id="edge6" class="edge">
<title>Node0x7fbfc2028990&#45;&gt;Node0x7fbfc2028880</title>
<path fill="none" stroke="blue" stroke-dasharray="5,2" d="M142.59,-189.37C143.22,-181.15 143.4,-171.66 143.12,-162.73"/>
<polygon fill="blue" stroke="blue" points="146.61,-162.41 142.59,-152.61 139.62,-162.78 146.61,-162.41"/>
</g>
<!-- Node0x7fbfc2028aa0 -->
<g id="node11" class="node">
<title>Node0x7fbfc2028aa0</title>
<path fill="none" stroke="black" d="M113.5,-272.5C113.5,-272.5 159.5,-272.5 159.5,-272.5 165.5,-272.5 171.5,-278.5 171.5,-284.5 171.5,-284.5 171.5,-306.5 171.5,-306.5 171.5,-312.5 165.5,-318.5 159.5,-318.5 159.5,-318.5 113.5,-318.5 113.5,-318.5 107.5,-318.5 101.5,-312.5 101.5,-306.5 101.5,-306.5 101.5,-284.5 101.5,-284.5 101.5,-278.5 107.5,-272.5 113.5,-272.5"/>
<text text-anchor="middle" x="136.5" y="-303.3" font-family="Times,serif" font-size="14.00">SU:10</text>
<polyline fill="none" stroke="black" points="101.5,-295.5 171.5,-295.5 "/>
<text text-anchor="middle" x="136.5" y="-280.3" font-family="Times,serif" font-size="14.00">AND32rr</text>
</g>
<!-- Node0x7fbfc2028aa0&#45;&gt;Node0x7fbfc2028440 -->
<g id="edge10" class="edge">
<title>Node0x7fbfc2028aa0&#45;&gt;Node0x7fbfc2028440</title>
<path fill="none" stroke="black" d="M111.36,-272.37C100.81,-263.08 88.41,-252.16 77.17,-242.26"/>
<polygon fill="black" stroke="black" points="79.43,-239.59 69.61,-235.61 74.8,-244.84 79.43,-239.59"/>
</g>
<!-- Node0x7fbfc2028aa0&#45;&gt;Node0x7fbfc2028990 -->
<g id="edge8" class="edge">
<title>Node0x7fbfc2028aa0&#45;&gt;Node0x7fbfc2028990</title>
<path fill="none" stroke="black" d="M130.41,-272.37C129.78,-264.15 129.6,-254.66 129.88,-245.73"/>
<polygon fill="black" stroke="black" points="133.38,-245.78 130.41,-235.61 126.39,-245.41 133.38,-245.78"/>
</g>
<!-- Node0x7fbfc2028aa0&#45;&gt;Node0x7fbfc2028990 -->
<g id="edge9" class="edge">
<title>Node0x7fbfc2028aa0&#45;&gt;Node0x7fbfc2028990</title>
<path fill="none" stroke="blue" stroke-dasharray="5,2" d="M142.59,-272.37C143.22,-264.15 143.4,-254.66 143.12,-245.73"/>
<polygon fill="blue" stroke="blue" points="146.61,-245.41 142.59,-235.61 139.62,-245.78 146.61,-245.41"/>
</g>
<!-- Node0x7fbfc2028bb0 -->
<g id="node12" class="node">
<title>Node0x7fbfc2028bb0</title>
<path fill="none" stroke="black" d="M137,-355.5C137,-355.5 182,-355.5 182,-355.5 188,-355.5 194,-361.5 194,-367.5 194,-367.5 194,-389.5 194,-389.5 194,-395.5 188,-401.5 182,-401.5 182,-401.5 137,-401.5 137,-401.5 131,-401.5 125,-395.5 125,-389.5 125,-389.5 125,-367.5 125,-367.5 125,-361.5 131,-355.5 137,-355.5"/>
<text text-anchor="middle" x="159.5" y="-386.3" font-family="Times,serif" font-size="14.00">SU:11</text>
<polyline fill="none" stroke="black" points="125,-378.5 194,-378.5 "/>
<text text-anchor="middle" x="159.5" y="-363.3" font-family="Times,serif" font-size="14.00">XOR32rr</text>
</g>
<!-- Node0x7fbfc2028bb0&#45;&gt;Node0x7fbfc2028770 -->
<g id="edge13" class="edge">
<title>Node0x7fbfc2028bb0&#45;&gt;Node0x7fbfc2028770</title>
<path fill="none" stroke="black" d="M167.85,-355.4C171.86,-344.51 176.62,-331.13 180.5,-319 197.91,-264.54 215.32,-200.28 225.21,-162.6"/>
<polygon fill="black" stroke="black" points="228.66,-163.27 227.8,-152.71 221.88,-161.5 228.66,-163.27"/>
</g>
<!-- Node0x7fbfc2028bb0&#45;&gt;Node0x7fbfc2028aa0 -->
<g id="edge11" class="edge">
<title>Node0x7fbfc2028bb0&#45;&gt;Node0x7fbfc2028aa0</title>
<path fill="none" stroke="black" d="M147.12,-355.37C144.13,-347.06 141.22,-337.45 138.95,-328.43"/>
<polygon fill="black" stroke="black" points="142.35,-327.57 136.69,-318.61 135.52,-329.14 142.35,-327.57"/>
</g>
<!-- Node0x7fbfc2028bb0&#45;&gt;Node0x7fbfc2028aa0 -->
<g id="edge12" class="edge">
<title>Node0x7fbfc2028bb0&#45;&gt;Node0x7fbfc2028aa0</title>
<path fill="none" stroke="blue" stroke-dasharray="5,2" d="M159.31,-355.37C157.57,-346.97 154.98,-337.24 152.09,-328.14"/>
<polygon fill="blue" stroke="blue" points="155.38,-326.96 148.87,-318.61 148.75,-329.2 155.38,-326.96"/>
</g>
<!-- Node0x7fbfc2028cc0 -->
<g id="node13" class="node">
<title>Node0x7fbfc2028cc0</title>
<path fill="none" stroke="black" d="M247.5,-355.5C247.5,-355.5 299.5,-355.5 299.5,-355.5 305.5,-355.5 311.5,-361.5 311.5,-367.5 311.5,-367.5 311.5,-389.5 311.5,-389.5 311.5,-395.5 305.5,-401.5 299.5,-401.5 299.5,-401.5 247.5,-401.5 247.5,-401.5 241.5,-401.5 235.5,-395.5 235.5,-389.5 235.5,-389.5 235.5,-367.5 235.5,-367.5 235.5,-361.5 241.5,-355.5 247.5,-355.5"/>
<text text-anchor="middle" x="273.5" y="-386.3" font-family="Times,serif" font-size="14.00">SU:12</text>
<polyline fill="none" stroke="black" points="235.5,-378.5 311.5,-378.5 "/>
<text text-anchor="middle" x="273.5" y="-363.3" font-family="Times,serif" font-size="14.00">ADD32rm</text>
</g>
<!-- Node0x7fbfc2028cc0&#45;&gt;Node0x7fbfc2028000 -->
<g id="edge16" class="edge">
<title>Node0x7fbfc2028cc0&#45;&gt;Node0x7fbfc2028000</title>
<path fill="none" stroke="black" d="M268.31,-355.37C266.36,-347.06 264.11,-337.45 261.99,-328.43"/>
<polygon fill="black" stroke="black" points="265.38,-327.54 259.69,-318.61 258.56,-329.14 265.38,-327.54"/>
</g>
<!-- Node0x7fbfc2028cc0&#45;&gt;Node0x7fbfc2028220 -->
<g id="edge14" class="edge">
<title>Node0x7fbfc2028cc0&#45;&gt;Node0x7fbfc2028220</title>
<path fill="none" stroke="black" d="M285.44,-355.37C292.03,-346.44 300.39,-336 308.59,-326.41"/>
<polygon fill="black" stroke="black" points="311.46,-328.44 315.4,-318.61 306.19,-323.84 311.46,-328.44"/>
</g>
<!-- Node0x7fbfc2028cc0&#45;&gt;Node0x7fbfc2028220 -->
<g id="edge15" class="edge">
<title>Node0x7fbfc2028cc0&#45;&gt;Node0x7fbfc2028220</title>
<path fill="none" stroke="blue" stroke-dasharray="5,2" d="M297.63,-355.37C305.51,-346.53 314.07,-336.21 321.45,-326.7"/>
<polygon fill="blue" stroke="blue" points="324.33,-328.69 327.58,-318.61 318.75,-324.46 324.33,-328.69"/>
</g>
<!-- Node0x7fbfc2028dd0 -->
<g id="node14" class="node">
<title>Node0x7fbfc2028dd0</title>
<path fill="none" stroke="black" d="M158,-438.5C158,-438.5 217,-438.5 217,-438.5 223,-438.5 229,-444.5 229,-450.5 229,-450.5 229,-472.5 229,-472.5 229,-478.5 223,-484.5 217,-484.5 217,-484.5 158,-484.5 158,-484.5 152,-484.5 146,-478.5 146,-472.5 146,-472.5 146,-450.5 146,-450.5 146,-444.5 152,-438.5 158,-438.5"/>
<text text-anchor="middle" x="187.5" y="-469.3" font-family="Times,serif" font-size="14.00">SU:13</text>
<polyline fill="none" stroke="black" points="146,-461.5 229,-461.5 "/>
<text text-anchor="middle" x="187.5" y="-446.3" font-family="Times,serif" font-size="14.00">LEA64_32r</text>
</g>
<!-- Node0x7fbfc2028dd0&#45;&gt;Node0x7fbfc2028bb0 -->
<g id="edge17" class="edge">
<title>Node0x7fbfc2028dd0&#45;&gt;Node0x7fbfc2028bb0</title>
<path fill="none" stroke="black" d="M179.85,-438.37C176.95,-429.97 173.58,-420.24 170.44,-411.14"/>
<polygon fill="black" stroke="black" points="173.72,-409.91 167.14,-401.61 167.1,-412.2 173.72,-409.91"/>
</g>
<!-- Node0x7fbfc2028dd0&#45;&gt;Node0x7fbfc2028cc0 -->
<g id="edge18" class="edge">
<title>Node0x7fbfc2028dd0&#45;&gt;Node0x7fbfc2028cc0</title>
<path fill="none" stroke="black" d="M211,-438.37C220.76,-429.17 232.23,-418.37 242.66,-408.55"/>
<polygon fill="black" stroke="black" points="245.15,-411.01 250.03,-401.61 240.35,-405.92 245.15,-411.01"/>
</g>
<!-- Node0x7fbfc2028ee0 -->
<g id="node15" class="node">
<title>Node0x7fbfc2028ee0</title>
<path fill="none" stroke="black" d="M166,-521.5C166,-521.5 209,-521.5 209,-521.5 215,-521.5 221,-527.5 221,-533.5 221,-533.5 221,-555.5 221,-555.5 221,-561.5 215,-567.5 209,-567.5 209,-567.5 166,-567.5 166,-567.5 160,-567.5 154,-561.5 154,-555.5 154,-555.5 154,-533.5 154,-533.5 154,-527.5 160,-521.5 166,-521.5"/>
<text text-anchor="middle" x="187.5" y="-552.3" font-family="Times,serif" font-size="14.00">SU:14</text>
<polyline fill="none" stroke="black" points="154,-544.5 221,-544.5 "/>
<text text-anchor="middle" x="187.5" y="-529.3" font-family="Times,serif" font-size="14.00">ROL32ri</text>
</g>
<!-- Node0x7fbfc2028ee0&#45;&gt;Node0x7fbfc2028dd0 -->
<g id="edge19" class="edge">
<title>Node0x7fbfc2028ee0&#45;&gt;Node0x7fbfc2028dd0</title>
<path fill="none" stroke="black" d="M181.41,-521.37C180.78,-513.15 180.6,-503.66 180.88,-494.73"/>
<polygon fill="black" stroke="black" points="184.38,-494.78 181.41,-484.61 177.39,-494.41 184.38,-494.78"/>
</g>
<!-- Node0x7fbfc2028ee0&#45;&gt;Node0x7fbfc2028dd0 -->
<g id="edge20" class="edge">
<title>Node0x7fbfc2028ee0&#45;&gt;Node0x7fbfc2028dd0</title>
<path fill="none" stroke="blue" stroke-dasharray="5,2" d="M193.59,-521.37C194.22,-513.15 194.4,-503.66 194.12,-494.73"/>
<polygon fill="blue" stroke="blue" points="197.61,-494.41 193.59,-484.61 190.62,-494.78 197.61,-494.41"/>
</g>
<!-- Node0x7fbfc2028ff0 -->
<g id="node16" class="node">
<title>Node0x7fbfc2028ff0</title>
<path fill="none" stroke="black" d="M164.5,-604.5C164.5,-604.5 210.5,-604.5 210.5,-604.5 216.5,-604.5 222.5,-610.5 222.5,-616.5 222.5,-616.5 222.5,-638.5 222.5,-638.5 222.5,-644.5 216.5,-650.5 210.5,-650.5 210.5,-650.5 164.5,-650.5 164.5,-650.5 158.5,-650.5 152.5,-644.5 152.5,-638.5 152.5,-638.5 152.5,-616.5 152.5,-616.5 152.5,-610.5 158.5,-604.5 164.5,-604.5"/>
<text text-anchor="middle" x="187.5" y="-635.3" font-family="Times,serif" font-size="14.00">SU:15</text>
<polyline fill="none" stroke="black" points="152.5,-627.5 222.5,-627.5 "/>
<text text-anchor="middle" x="187.5" y="-612.3" font-family="Times,serif" font-size="14.00">ADD32rr</text>
</g>
<!-- Node0x7fbfc2028ff0&#45;&gt;Node0x7fbfc2028440 -->
<g id="edge23" class="edge">
<title>Node0x7fbfc2028ff0&#45;&gt;Node0x7fbfc2028440</title>
<path fill="none" stroke="black" d="M154.2,-604.45C116.28,-576.38 59.5,-524.08 59.5,-462.5 59.5,-462.5 59.5,-462.5 59.5,-377.5 59.5,-331.58 53.6,-278.72 49.2,-245.71"/>
<polygon fill="black" stroke="black" points="52.65,-245.16 47.83,-235.72 45.72,-246.11 52.65,-245.16"/>
</g>
<!-- Node0x7fbfc2028ff0&#45;&gt;Node0x7fbfc2028ee0 -->
<g id="edge21" class="edge">
<title>Node0x7fbfc2028ff0&#45;&gt;Node0x7fbfc2028ee0</title>
<path fill="none" stroke="black" d="M181.41,-604.37C180.78,-596.15 180.6,-586.66 180.88,-577.73"/>
<polygon fill="black" stroke="black" points="184.38,-577.78 181.41,-567.61 177.39,-577.41 184.38,-577.78"/>
</g>
<!-- Node0x7fbfc2028ff0&#45;&gt;Node0x7fbfc2028ee0 -->
<g id="edge22" class="edge">
<title>Node0x7fbfc2028ff0&#45;&gt;Node0x7fbfc2028ee0</title>
<path fill="none" stroke="blue" stroke-dasharray="5,2" d="M193.59,-604.37C194.22,-596.15 194.4,-586.66 194.12,-577.73"/>
<polygon fill="blue" stroke="blue" points="197.61,-577.41 193.59,-567.61 190.62,-577.78 197.61,-577.41"/>
</g>
<!-- Node0x7fbfc2029100 -->
<g id="node17" class="node">
<title>Node0x7fbfc2029100</title>
<path fill="none" stroke="black" d="M293,-687.5C293,-687.5 348,-687.5 348,-687.5 354,-687.5 360,-693.5 360,-699.5 360,-699.5 360,-721.5 360,-721.5 360,-727.5 354,-733.5 348,-733.5 348,-733.5 293,-733.5 293,-733.5 287,-733.5 281,-727.5 281,-721.5 281,-721.5 281,-699.5 281,-699.5 281,-693.5 287,-687.5 293,-687.5"/>
<text text-anchor="middle" x="320.5" y="-718.3" font-family="Times,serif" font-size="14.00">SU:16</text>
<polyline fill="none" stroke="black" points="281,-710.5 360,-710.5 "/>
<text text-anchor="middle" x="320.5" y="-695.3" font-family="Times,serif" font-size="14.00">MOV32mr</text>
</g>
<!-- Node0x7fbfc2029100&#45;&gt;Node0x7fbfc2028110 -->
<g id="edge27" class="edge">
<title>Node0x7fbfc2029100&#45;&gt;Node0x7fbfc2028110</title>
<path fill="none" stroke="black" d="M341.34,-687.32C367.08,-657.51 407.5,-601.74 407.5,-545.5 407.5,-545.5 407.5,-545.5 407.5,-377.5 407.5,-330.93 394.19,-278.44 384.23,-245.66"/>
<polygon fill="black" stroke="black" points="387.45,-244.25 381.13,-235.75 380.77,-246.33 387.45,-244.25"/>
</g>
<!-- Node0x7fbfc2029100&#45;&gt;Node0x7fbfc2028220 -->
<g id="edge26" class="edge">
<title>Node0x7fbfc2029100&#45;&gt;Node0x7fbfc2028220</title>
<path fill="none" stroke="blue" stroke-dasharray="5,2" d="M324.72,-687.31C330.31,-655.88 339.5,-596.52 339.5,-545.5 339.5,-545.5 339.5,-545.5 339.5,-460.5 339.5,-414.84 339.5,-362.03 339.5,-328.94"/>
<polygon fill="blue" stroke="blue" points="343,-328.52 339.5,-318.52 336,-328.52 343,-328.52"/>
</g>
<!-- Node0x7fbfc2029100&#45;&gt;Node0x7fbfc2028cc0 -->
<g id="edge25" class="edge">
<title>Node0x7fbfc2029100&#45;&gt;Node0x7fbfc2028cc0</title>
<path fill="none" stroke="blue" stroke-dasharray="5,2" d="M317.34,-687.34C309.22,-630.27 287.55,-478.12 278.06,-411.5"/>
<polygon fill="blue" stroke="blue" points="281.52,-410.97 276.64,-401.57 274.59,-411.96 281.52,-410.97"/>
</g>
<!-- Node0x7fbfc2029100&#45;&gt;Node0x7fbfc2028ff0 -->
<g id="edge24" class="edge">
<title>Node0x7fbfc2029100&#45;&gt;Node0x7fbfc2028ff0</title>
<path fill="none" stroke="black" d="M284.16,-687.37C267.91,-677.47 248.63,-665.73 231.57,-655.34"/>
<polygon fill="black" stroke="black" points="233.24,-652.26 222.88,-650.05 229.6,-658.24 233.24,-652.26"/>
</g>
</g>
</svg>
